<?xml version="1.0" encoding="UTF-8"?>
<svg version="1.1" xmlns="http://www.w3.org/2000/svg" width="545" height="590">
<path d="M0 0 C1.76427589 -0.01908669 1.76427589 -0.01908669 3.56419373 -0.03855896 C4.84589447 -0.03203308 6.12759521 -0.0255072 7.44813538 -0.01878357 C8.81844002 -0.02584478 10.18873687 -0.03459066 11.559021 -0.04489136 C15.27401339 -0.06737362 18.98857952 -0.06444847 22.703614 -0.05556989 C25.80750366 -0.05045573 28.91131351 -0.05775605 32.01519495 -0.06504196 C39.33894151 -0.08203744 46.66247969 -0.07847899 53.98622131 -0.06175232 C61.53620289 -0.04483166 69.08560627 -0.0606651 76.63552469 -0.0929752 C83.1231825 -0.11968521 89.61066048 -0.12694333 96.09836775 -0.11846012 C99.97076821 -0.11353487 103.84282084 -0.11572421 107.71517754 -0.13624763 C111.35733648 -0.15462728 114.99866497 -0.14861956 118.6407795 -0.12404823 C120.61006075 -0.11666744 122.57938635 -0.13387834 124.54859924 -0.15187073 C134.20489096 -0.04823209 134.20489096 -0.04823209 137.83999634 2.74160767 C142.07004012 7.87702973 142.4150131 12.40279437 142.37863636 18.89059353 C142.38184284 19.73537527 142.38504932 20.580157 142.38835296 21.45053819 C142.39668461 24.294283 142.3907176 27.13781894 142.38485718 29.98156738 C142.38787641 32.0357585 142.39176474 34.08994849 142.39644974 36.14413649 C142.40676781 41.79925908 142.40453826 47.45431855 142.40026915 53.10944641 C142.39780883 59.20428844 142.40680741 65.299115 142.41430664 71.39395142 C142.42707484 83.33811839 142.42885056 95.28226346 142.42650638 107.22643416 C142.4246747 116.93164465 142.42643069 126.63684852 142.43073082 136.34205818 C142.43133322 137.73571486 142.43193441 139.12937154 142.43253442 140.52302821 C142.43344166 142.62305501 142.43435033 144.72308181 142.43526677 146.8231086 C142.44369797 166.35135899 142.44803083 185.87960689 142.44386005 205.40785885 C142.44370368 206.14424187 142.4435473 206.88062489 142.44338619 207.63932254 C142.44258039 211.37172218 142.44173462 215.10412181 142.44087289 218.83652144 C142.44061625 219.94844904 142.44061625 219.94844904 142.44035444 221.08283983 C142.44000778 222.58189847 142.43965925 224.0809571 142.43930885 225.58001573 C142.43395072 248.90940226 142.44188399 272.23875101 142.46034241 295.56813049 C142.48104957 321.77044949 142.49178762 347.97274508 142.48776692 374.17507273 C142.48737157 376.9678663 142.48701002 379.76065987 142.48666954 382.55345345 C142.48657881 383.24112534 142.48648808 383.92879724 142.4863946 384.63730769 C142.48522772 395.02672832 142.4918837 405.41612535 142.50248146 415.80554008 C142.51451871 427.61829887 142.51583051 439.43101469 142.50369129 451.24377745 C142.49778374 457.27381012 142.49675485 463.30374092 142.5086937 469.33376694 C142.51948873 474.85005764 142.51652561 480.36616062 142.50243201 485.8824423 C142.49976741 487.88171332 142.50220639 489.88099875 142.51016787 491.88025569 C142.52021766 494.59136359 142.51190021 497.30181177 142.49889088 500.01289272 C142.5098549 501.18555179 142.5098549 501.18555179 142.52104041 502.38190094 C142.46027219 508.46384397 141.09415396 512.52550472 136.80390072 516.85749722 C133.66894823 518.79616973 131.91120312 519.01924763 128.24832153 519.02932739 C127.0721376 519.04205185 125.89595367 519.05477631 124.68412781 519.06788635 C123.40242706 519.06136047 122.12072632 519.05483459 120.80018616 519.04811096 C119.42988151 519.05517218 118.05958466 519.06391805 116.68930054 519.07421875 C112.97430814 519.09670101 109.25974202 519.09377586 105.54470754 519.08489728 C102.44081788 519.07978313 99.33700802 519.08708344 96.23312658 519.09436935 C88.90938002 519.11136483 81.58584184 519.10780638 74.26210022 519.09107971 C66.71211864 519.07415905 59.16271527 519.08999249 51.61279684 519.12230259 C45.12513903 519.1490126 38.63766105 519.15627072 32.14995378 519.14778751 C28.27755332 519.14286227 24.40550069 519.1450516 20.533144 519.16557503 C16.89098506 519.18395468 13.24965657 519.17794696 9.60754204 519.15337563 C7.63826078 519.14599483 5.66893518 519.16320574 3.69972229 519.18119812 C-5.95839563 519.07753988 -5.95839563 519.07753988 -9.5916748 516.35021973 C-13.88466534 511.02091198 -14.16781289 505.6852884 -14.13031483 499.04971409 C-14.13352131 498.20745485 -14.13672778 497.36519561 -14.14003143 496.49741337 C-14.14834882 493.66826064 -14.14240103 490.83931864 -14.13653564 488.01016235 C-14.13955553 485.96407047 -14.14344419 483.91797971 -14.14812821 481.87189096 C-14.15843789 476.24376137 -14.15621884 470.61569526 -14.15194762 464.98756039 C-14.14948579 458.91998357 -14.15848776 452.85242226 -14.16598511 446.78485107 C-14.17874905 434.89596524 -14.18052955 423.00710139 -14.17818484 411.11821181 C-14.17635268 401.45737022 -14.17811018 391.79653527 -14.18240929 382.1356945 C-14.18301168 380.74807312 -14.18361288 379.36045173 -14.18421289 377.97283034 C-14.18512013 375.88186143 -14.1860288 373.79089252 -14.18694524 371.69992361 C-14.19537554 352.25776616 -14.1997099 332.81561121 -14.19553852 313.37345219 C-14.19538214 312.64042612 -14.19522577 311.90740006 -14.19506465 311.15216108 C-14.19425886 307.43683333 -14.19341309 303.72150559 -14.19255135 300.00617785 C-14.19238026 299.2682922 -14.19220918 298.53040654 -14.1920329 297.77016072 C-14.19168625 296.27797686 -14.19133772 294.78579301 -14.19098732 293.29360916 C-14.18562925 270.07146193 -14.19356266 246.84935267 -14.21202087 223.62721252 C-14.23273102 197.54133904 -14.24346552 171.45548908 -14.23944539 145.36960691 C-14.23905004 142.5888875 -14.23868849 139.80816808 -14.23834801 137.02744865 C-14.23825728 136.34275698 -14.23816654 135.6580653 -14.23807306 134.9526254 C-14.23690652 124.61126046 -14.24355968 114.26991926 -14.25415993 103.92856026 C-14.26620086 92.16965302 -14.26750487 80.41078895 -14.25536976 68.65187771 C-14.2494648 62.65006774 -14.24842626 56.64836012 -14.26037216 50.64655685 C-14.27117581 45.15492577 -14.26819362 39.66348316 -14.25411048 34.1718611 C-14.25144829 32.18269633 -14.25387745 30.19351705 -14.26184634 28.20436645 C-14.27191375 25.50450019 -14.26356347 22.80529396 -14.25056934 20.10545444 C-14.25787869 19.32980329 -14.26518804 18.55415213 -14.27271888 17.75499639 C-14.21067208 11.55257805 -12.99668436 6.71327065 -8.55557919 2.10933018 C-5.42790987 0.24810875 -3.62034619 0.00996271 0 0 Z " fill="rgb(88, 111, 204)" transform="translate(78.87583923339844,40.48533630371094)"/>
<path d="M0 0 C1.76427589 -0.01908669 1.76427589 -0.01908669 3.56419373 -0.03855896 C4.84589447 -0.03203308 6.12759521 -0.0255072 7.44813538 -0.01878357 C8.81844002 -0.02584478 10.18873687 -0.03459066 11.559021 -0.04489136 C15.27401339 -0.06737362 18.98857952 -0.06444847 22.703614 -0.05556989 C25.80750366 -0.05045573 28.91131351 -0.05775605 32.01519495 -0.06504196 C39.33894151 -0.08203744 46.66247969 -0.07847899 53.98622131 -0.06175232 C61.53620289 -0.04483166 69.08560627 -0.0606651 76.63552469 -0.0929752 C83.1231825 -0.11968521 89.61066048 -0.12694333 96.09836775 -0.11846012 C99.97076821 -0.11353487 103.84282084 -0.11572421 107.71517754 -0.13624763 C111.35733648 -0.15462728 114.99866497 -0.14861956 118.6407795 -0.12404823 C120.61006075 -0.11666744 122.57938635 -0.13387834 124.54859924 -0.15187073 C134.20115293 -0.04827221 134.20115293 -0.04827221 137.90249634 2.92910767 C141.5161906 7.13469735 141.26915314 10.27582576 141.26117516 15.61515427 C141.2651529 16.89232994 141.2651529 16.89232994 141.26921099 18.19530714 C141.27693732 21.07974465 141.27746443 23.96413984 141.27806091 26.84858704 C141.28207334 28.92493722 141.28651119 31.00128661 141.29134047 33.07763505 C141.30333626 38.8079253 141.30896136 44.53820712 141.31352162 50.26850748 C141.3194663 56.43906619 141.3310789 62.60961475 141.34181213 68.78016663 C141.36520064 82.98872626 141.37974687 97.19728629 141.39204155 111.40585882 C141.39629479 116.32052661 141.40086048 121.23519402 141.40562487 126.14986134 C141.43088289 152.26936193 141.45293577 178.38886314 141.46535301 204.50837326 C141.46827445 210.56157687 141.47124194 216.61478045 141.47425842 222.66798401 C141.47462933 223.4200344 141.47500024 224.17208479 141.47538239 224.94692459 C141.48754105 249.33656709 141.51848971 273.72613749 141.56017995 298.11574612 C141.6029453 323.17994841 141.62959116 348.2441126 141.63482773 373.30835237 C141.6355682 376.84675024 141.63647889 380.38514804 141.6374855 383.92354584 C141.63767612 384.61995614 141.63786673 385.31636644 141.63806312 386.03388009 C141.64157988 397.25199287 141.66189234 408.47001549 141.68828214 419.68809513 C141.71439803 430.95950468 141.7217513 442.23081146 141.71118085 453.5022566 C141.70597855 459.6113272 141.70898301 465.72011047 141.73364639 471.82913971 C141.75602137 477.41781359 141.75549069 483.00599178 141.73644252 488.59467366 C141.73362597 490.62028599 141.73933203 492.64593109 141.75425546 494.6714904 C141.77326272 497.41853917 141.76164006 500.16380233 141.74219322 502.91080856 C141.75504244 503.70306489 141.76789166 504.49532121 141.78113025 505.31158531 C141.69190992 511.02076552 140.2149691 513.52130872 136.12416077 517.5146637 C133.50062851 518.82642982 131.54832195 518.65255019 128.60908508 518.66856384 C127.43702515 518.67716431 126.26496521 518.68576477 125.05738831 518.69462585 C123.76490173 518.6988858 122.47241516 518.70314575 121.14076233 518.70753479 C119.77090751 518.71543525 118.40105477 518.72370417 117.03120422 518.73231506 C112.52575165 518.75854393 108.02028974 518.77384457 103.51478577 518.7881012 C101.9640426 518.79346072 100.4132995 518.79883822 98.86255646 518.80423355 C92.41156952 518.82586446 85.9605851 518.84460088 79.50957108 518.85585594 C70.26380196 518.87209279 61.01845326 518.90526125 51.77284265 518.96225679 C45.27254996 519.00096219 38.77236969 519.02048938 32.27196479 519.02577651 C28.38939876 519.0294295 24.50728106 519.04144411 20.62483978 519.07387924 C16.97049331 519.10397064 13.31686614 519.1102685 9.66242218 519.09849548 C7.68589544 519.0981698 5.70941304 519.12262908 3.73304749 519.14787292 C-5.96038578 519.07973131 -5.96038578 519.07973131 -9.59465027 516.29069519 C-13.81829894 511.15083966 -14.1666941 506.62698365 -14.13031483 500.13873386 C-14.13512454 498.87156126 -14.13512454 498.87156126 -14.14003143 497.5787892 C-14.14836308 494.73504439 -14.14239607 491.89150845 -14.13653564 489.04776001 C-14.13955488 486.99356889 -14.14344321 484.9393789 -14.14812821 482.8851909 C-14.15844627 477.23006831 -14.15621672 471.57500885 -14.15194762 465.91988099 C-14.1494873 459.82503895 -14.15848588 453.7302124 -14.16598511 447.63537598 C-14.1787533 435.69120901 -14.18052903 423.74706393 -14.17818484 411.80289323 C-14.17635317 402.09768274 -14.17810915 392.39247887 -14.18240929 382.68726921 C-14.18301168 381.29361253 -14.18361288 379.89995586 -14.18421289 378.50629918 C-14.18512013 376.40627238 -14.18602879 374.30624559 -14.18694524 372.20621879 C-14.19537644 352.6779684 -14.19970929 333.1497205 -14.19553852 313.62146854 C-14.19538214 312.88508553 -14.19522577 312.14870251 -14.19506465 311.39000485 C-14.19425885 307.65760521 -14.19341308 303.92520558 -14.19255135 300.19280595 C-14.19238026 299.45152088 -14.19220918 298.71023581 -14.1920329 297.94648756 C-14.19168625 296.44742893 -14.19133772 294.94837029 -14.19098732 293.44931166 C-14.18562919 270.11992513 -14.19356246 246.79057638 -14.21202087 223.4611969 C-14.23272803 197.2588779 -14.24346609 171.05658231 -14.23944539 144.85425466 C-14.23905003 142.06146109 -14.23868849 139.26866752 -14.23834801 136.47587395 C-14.23825728 135.78820205 -14.23816654 135.10053015 -14.23807306 134.39201971 C-14.23690619 124.00259907 -14.24356217 113.61320204 -14.25415993 103.22378731 C-14.26619718 91.41102852 -14.26750897 79.59831271 -14.25536976 67.78554995 C-14.24946221 61.75551727 -14.24843332 55.72558647 -14.26037216 49.69556046 C-14.2711672 44.17926975 -14.26820407 38.66316678 -14.25411048 33.14688509 C-14.25144588 31.14761407 -14.25388485 29.14832864 -14.26184634 27.1490717 C-14.27189613 24.43796381 -14.26357868 21.72751562 -14.25056934 19.01643467 C-14.25787869 18.23466196 -14.26518804 17.45288925 -14.27271888 16.64742646 C-14.21195066 10.56548343 -12.84583243 6.50382267 -8.55557919 2.17183018 C-5.42062669 0.23315766 -3.66288159 0.01007976 0 0 Z " fill="rgb(88, 111, 204)" transform="translate(328.87583923339844,40.48533630371094)"/>
</svg>
