<?xml version="1.0" encoding="UTF-8"?>
<svg version="1.1" xmlns="http://www.w3.org/2000/svg" width="523" height="610">
<path d="M0 0 C3.39427999 1.82387448 6.29442856 4.15814107 9.27001953 6.59570312 C11.98618511 8.80052735 14.76413128 10.92462254 17.53271484 13.06298828 C19.88296679 14.88116318 22.22565254 16.70868028 24.56640625 18.5390625 C28.30280267 21.45889547 32.05138204 24.36210239 35.8125 27.25 C36.83988281 28.03890625 37.86726563 28.8278125 38.92578125 29.640625 C39.94027344 30.41921875 40.95476562 31.1978125 42 32 C44.71301586 34.08579105 47.42504482 36.17286478 50.13720703 38.25976562 C52.78177486 40.29441368 55.42722447 42.32788256 58.07421875 44.359375 C65.18298576 49.8180518 72.26343622 55.31215481 79.33544922 60.81835938 C85.87075302 65.90460897 92.42979639 70.95892306 99 76 C106.27045726 81.57835595 113.52137581 87.18004605 120.75 92.8125 C126.64434931 97.40465994 132.55844955 101.96908327 138.5 106.5 C145.21103416 111.61771081 151.88245443 116.78436288 158.53979492 121.97167969 C165.00551133 127.00880081 171.49795893 132.00986937 178 137 C180.71301586 139.08579105 183.42504482 141.17286478 186.13720703 143.25976562 C188.78177486 145.29441368 191.42722447 147.32788256 194.07421875 149.359375 C201.18298576 154.8180518 208.26343622 160.31215481 215.33544922 165.81835938 C221.87075302 170.90460897 228.42979639 175.95892306 235 181 C242.27045726 186.57835595 249.52137581 192.18004605 256.75 197.8125 C262.64434931 202.40465994 268.55844955 206.96908327 274.5 211.5 C281.21103416 216.61771081 287.88245443 221.78436288 294.53979492 226.97167969 C301.00550311 232.00879442 307.49731069 237.01072432 314 242 C321.27045827 247.57835673 328.5212928 253.18015158 335.75 258.8125 C341.66788408 263.42175339 347.60209036 268.00836263 353.5625 272.5625 C354.24868408 273.08739014 354.93486816 273.61228027 355.6418457 274.15307617 C359.34264806 276.98101098 363.05297489 279.79563105 366.7734375 282.59765625 C367.55388428 283.18796631 368.33433105 283.77827637 369.13842773 284.38647461 C370.637586 285.52011654 372.13957745 286.6500244 373.64477539 287.77563477 C374.31758545 288.28537842 374.99039551 288.79512207 375.68359375 289.3203125 C376.27712646 289.76648926 376.87065918 290.21266602 377.48217773 290.67236328 C379.7136749 292.6242503 380.89856996 294.37006606 381.37109375 297.3046875 C381.39300781 298.15289062 381.41492188 299.00109375 381.4375 299.875 C381.47746094 300.71804688 381.51742188 301.56109375 381.55859375 302.4296875 C380.28813072 308.27559431 373.53752488 312.10746679 369 315.6875 C368.34209473 316.21005371 367.68418945 316.73260742 367.00634766 317.27099609 C360.72276212 322.24858743 354.3700373 327.13388992 348 332 C340.64561157 337.6399259 333.31282806 343.30629904 326 349 C318.68714576 354.69372134 311.35229969 360.35732018 304 366 C301.83289153 367.66609253 299.66642661 369.33302098 297.5 371 C294.30981395 373.45472115 291.11903483 375.90864417 287.92578125 378.359375 C281.59956235 383.21714911 275.29351992 388.09992302 269 393 C260.67443295 399.48221026 252.31663482 405.92074055 243.9453125 412.34375 C237.69565181 417.14398813 231.46616079 421.96894492 225.25 426.8125 C218.66253217 431.94465357 212.04448573 437.03445904 205.40429688 442.09814453 C199.39445109 446.6862914 193.42441593 451.32444086 187.46020508 455.97167969 C180.99448867 461.00880081 174.50204107 466.00986937 168 471 C165.83289153 472.66609253 163.66642661 474.33302098 161.5 476 C158.30981395 478.45472115 155.11903483 480.90864417 151.92578125 483.359375 C145.59956235 488.21714911 139.29351992 493.09992302 133 498 C124.67443295 504.48221026 116.31663482 510.92074055 107.9453125 517.34375 C101.69565181 522.14398813 95.46616079 526.96894492 89.25 531.8125 C82.66253217 536.94465357 76.04448573 542.03445904 69.40429688 547.09814453 C63.39445109 551.6862914 57.42441593 556.32444086 51.46020508 560.97167969 C44.99448505 566.00880364 38.50176313 571.00950237 32 576 C29.91657754 577.60405092 27.8332462 579.20822017 25.75 580.8125 C24.12122639 582.06483806 22.49209561 583.31670967 20.86279297 584.56835938 C19.50982999 585.6081726 18.15735509 586.648621 16.80517578 587.68945312 C14.47556224 589.48213878 12.14418136 591.27250503 9.8125 593.0625 C9.0690332 593.63524658 8.32556641 594.20799316 7.55957031 594.7980957 C6.86573242 595.33007568 6.17189453 595.86205566 5.45703125 596.41015625 C4.5285437 597.12377319 4.5285437 597.12377319 3.58129883 597.85180664 C-0.32473615 600.68800897 -4.32023018 600.6061878 -9 600 C-11.87029869 598.20606332 -13.49131638 597.01736724 -15 594 C-15.09419076 592.66499087 -15.12745064 591.32541025 -15.12880117 589.98708314 C-15.13207336 589.14102036 -15.13534555 588.29495759 -15.13871691 587.42325655 C-15.13723328 586.48658469 -15.13574966 585.54991284 -15.13422108 584.58485699 C-15.13657331 583.59128355 -15.13892554 582.59771012 -15.14134905 581.5740284 C-15.14806725 578.20613578 -15.14757998 574.83828148 -15.14717102 571.47038269 C-15.15046788 569.04683683 -15.15419307 566.62329151 -15.1583125 564.19974691 C-15.16730473 558.21282732 -15.17156333 552.22592025 -15.17383147 546.23899567 C-15.1767892 539.07151605 -15.18548402 531.90404629 -15.19424575 524.73657184 C-15.21510792 507.41106702 -15.2255624 490.08556048 -15.23437535 472.76004604 C-15.238579 464.56796772 -15.24380134 456.37589015 -15.24905988 448.18381245 C-15.26695085 420.15512942 -15.28194835 392.12644618 -15.28938007 364.09775829 C-15.28985483 362.33752863 -15.29033072 360.57729897 -15.29080774 358.81706931 C-15.2911623 357.50766476 -15.2911623 357.50766476 -15.29152403 356.17180759 C-15.29272526 351.74889711 -15.2939407 347.32598664 -15.29516602 342.90307617 C-15.29540617 342.02532824 -15.29564632 341.1475803 -15.29589374 340.24323394 C-15.30378999 311.77246506 -15.32722813 283.30173779 -15.35972196 254.83098709 C-15.39399392 224.74748304 -15.41372873 194.66400335 -15.41702431 164.58047944 C-15.41744187 161.28016268 -15.41792144 157.97984594 -15.41844749 154.67952919 C-15.41857069 153.86686682 -15.41869388 153.05420446 -15.4188208 152.21691596 C-15.42115603 139.12036205 -15.43683388 126.02385636 -15.45728934 112.92731967 C-15.47751157 99.77174571 -15.48304175 86.61622987 -15.47351871 73.46064325 C-15.46828978 65.63870594 -15.47424652 57.81696163 -15.49605338 49.99505196 C-15.5110866 44.16358461 -15.50536583 38.33226059 -15.49138286 32.50078634 C-15.48898681 30.13468609 -15.49343244 27.76856756 -15.50521151 25.40249541 C-15.52017903 22.19888146 -15.51076278 18.99625444 -15.49498463 15.79266644 C-15.50520683 14.86301808 -15.51542904 13.93336972 -15.52596101 12.9755502 C-15.48052937 8.78111336 -15.36256362 6.58011001 -13.09406346 2.95045835 C-9.19112973 -0.68482292 -5.1283908 -1.0117759 0 0 Z " fill="rgb(88, 111, 204)" transform="translate(90,0)"/>
</svg>
